# xmcd
#
# Track frame offsets:
#	150
#	18646
#	32120
#	51654
#	71910
#	91831
#	113541
#	132167
#	149261
#	169125
#	185011
#	209281
#
# Disc length: 3156 seconds
#
# Revision: 0
# Processed by: cddbd v1.5.2PL0 Copyright (c) Steve Scherf et al.
# Submitted via: dBpowerAMP V4.0
#
DISCID=b20c520c
DTITLE=Hillary Smith - No Easy Way
DYEAR=1900
DGENRE=Blues
TTITLE0=I Prefer You
TTITLE1=Standing'
TTITLE2=No Easy Way
TTITLE3=Ain't Nobody Like You
TTITLE4=Let Love Go
TTITLE5=Gotta Serve Somebody
TTITLE6=Love Come Down
TTITLE7=I Want To Be Around
TTITLE8=Never Make Your Move To Soon
TTITLE9=Superwoman (Where Were You when I Needed You)
TTITLE10=Who Do You Think You're Fooling
TTITLE11=Compared To What
EXTD=
EXTT0=
EXTT1=
EXTT2=
EXTT3=
EXTT4=
EXTT5=
EXTT6=
EXTT7=
EXTT8=
EXTT9=
EXTT10=
EXTT11=
PLAYORDER=
